<svg width="178" height="226" viewBox="0 0 178 226" fill="none" xmlns="http://www.w3.org/2000/svg">
<path d="M1 9C3.08772 3.71764 10.2105 -3.67768 22 9" stroke="#F9E28F" stroke-width="2" stroke-linecap="round"/>
<path d="M19.9593 209.709C19.9593 207.57 19.9616 206.072 20.1099 204.99C20.2578 203.911 20.5197 203.513 20.8121 203.308C20.9075 203.241 21.0085 203.183 21.1141 203.134C21.4376 202.983 21.9139 202.955 22.9216 203.366C23.9327 203.779 25.2318 204.526 27.0843 205.596C28.9368 206.665 30.2336 207.417 31.0964 208.086C31.9562 208.753 32.1706 209.179 32.2017 209.535C32.2118 209.651 32.2118 209.768 32.2017 209.884C32.1706 210.239 31.9562 210.665 31.0964 211.333C30.2336 212.002 28.9368 212.753 27.0843 213.823C25.2318 214.892 23.9327 215.64 22.9216 216.052C21.9139 216.463 21.4376 216.436 21.1141 216.285C21.0085 216.236 20.9075 216.178 20.8121 216.111C20.5197 215.906 20.2578 215.507 20.1099 214.429C19.9616 213.347 19.9593 211.848 19.9593 209.709Z" stroke="#B7C098" stroke-width="2"/>
<path d="M164.482 106C163.149 111.833 163.782 123.2 176.982 122" stroke="#67754B" stroke-width="2" stroke-linecap="round"/>
</svg>
