<svg width="16" height="16" viewBox="0 0 16 16" fill="none" xmlns="http://www.w3.org/2000/svg">
<path d="M1.95929 7.70929C1.95929 5.57025 1.96156 4.07151 2.10993 2.98955C2.25778 1.91138 2.51975 1.51258 2.81214 1.30785C2.90751 1.24107 3.00853 1.18274 3.11406 1.13354C3.43756 0.982685 3.91391 0.955212 4.92156 1.36626C5.93274 1.77874 7.23183 2.52615 9.08429 3.59567C10.9368 4.66519 12.2336 5.41653 13.0964 6.086C13.9562 6.75312 14.1706 7.17939 14.2017 7.53498C14.2118 7.65097 14.2118 7.76762 14.2017 7.8836C14.1706 8.23919 13.9562 8.66546 13.0964 9.33259C12.2336 10.0021 10.9368 10.7534 9.08429 11.8229C7.23182 12.8924 5.93274 13.6398 4.92156 14.0523C3.91391 14.4634 3.43756 14.4359 3.11406 14.285C3.00854 14.2358 2.90751 14.1775 2.81214 14.1107C2.51974 13.906 2.25778 13.5072 2.10993 12.429C1.96156 11.3471 1.95929 9.84834 1.95929 7.70929Z" stroke="#B7C098" stroke-width="2"/>
</svg>
